/* XPM */
static char *_537374530760[] = {
/* columns rows colors chars-per-pixel */
"32 32 197 2 ",
"   c #000002",
".  c #0D0000",
"X  c #0F0F00",
"o  c #190000",
"O  c #180C0C",
"+  c #081C01",
"@  c #131400",
"#  c #1F0919",
"$  c #26071D",
"%  c #201513",
"&  c #2D2910",
"*  c #290C23",
"=  c #350B2A",
"-  c #2A1527",
";  c #341529",
":  c #381229",
">  c #3D0C3C",
",  c #3B1533",
"<  c #3C1A32",
"1  c #361631",
"2  c #5E1E07",
"3  c #601E07",
"4  c #43032B",
"5  c #490A2B",
"6  c #54052E",
"7  c #511F24",
"8  c #490A32",
"9  c #520B31",
"0  c #4C1335",
"q  c #451A36",
"w  c #451C3A",
"e  c #4D1D3D",
"r  c #46143A",
"t  c #531B3D",
"y  c #5C1C3C",
"u  c #4B102D",
"i  c #66193B",
"p  c #4B212F",
"a  c #4C322F",
"s  c #533425",
"d  c #51203E",
"f  c #473536",
"g  c #4E2431",
"h  c #69223F",
"j  c #7C273F",
"k  c #5F5F0F",
"l  c #7D610F",
"z  c #626011",
"x  c #7D6113",
"c  c #3B3C4A",
"v  c #4F1941",
"b  c #541C42",
"n  c #5A1D48",
"m  c #701542",
"M  c #4F2340",
"N  c #532343",
"B  c #5B2444",
"V  c #5B2D45",
"C  c #5A234A",
"Z  c #5F2B4B",
"A  c #562846",
"S  c #4D3B48",
"D  c #5A3B4B",
"F  c #583056",
"G  c #632445",
"H  c #622845",
"J  c #63264C",
"K  c #632A4C",
"L  c #6A2B4A",
"P  c #6A2A43",
"I  c #702840",
"U  c #722E4C",
"Y  c #64324D",
"T  c #6E344D",
"R  c #65394B",
"E  c #73344C",
"W  c #7B394F",
"Q  c #633351",
"!  c #693853",
"~  c #713451",
"^  c #7A3451",
"/  c #723C55",
"(  c #7C3E57",
")  c #55404B",
"_  c #7C4649",
"`  c #7A4756",
"'  c #7C7447",
"]  c #7F4263",
"[  c #7C4A61",
"{  c #7F486B",
"}  c #7F5066",
"|  c #7B4C73",
" . c #754874",
".. c #7F6163",
"X. c #853512",
"o. c #AD723C",
"O. c #8F4247",
"+. c #914348",
"@. c #83425E",
"#. c #884959",
"$. c #955054",
"%. c #B35F58",
"&. c #857857",
"*. c #827746",
"=. c #B8665B",
"-. c #814264",
";. c #824D64",
":. c #844C68",
">. c #8D5564",
",. c #8D5867",
"<. c #83536A",
"1. c #84586E",
"2. c #8D596B",
"3. c #84546A",
"4. c #905967",
"5. c #955D6D",
"6. c #955A68",
"7. c #8A5C72",
"8. c #8B5B7D",
"9. c #915E71",
"0. c #9C656D",
"q. c #95626F",
"w. c #8B6276",
"e. c #8D657A",
"r. c #946474",
"t. c #94697C",
"y. c #9B6B7A",
"u. c #966577",
"i. c #9D7379",
"p. c #826365",
"a. c #A2696B",
"s. c #A66A65",
"d. c #B97464",
"f. c #A16F79",
"g. c #A3727E",
"h. c #BA9325",
"j. c #BB8357",
"k. c #B98978",
"l. c #DA914D",
"z. c #C69057",
"x. c #EA9A55",
"c. c #E9A34D",
"v. c #FFAA4C",
"b. c #FAB44B",
"n. c #FABC58",
"m. c #EDB24E",
"M. c #DEA161",
"N. c #E8B867",
"B. c #F8BE62",
"V. c #FFCF5A",
"C. c #FFC256",
"Z. c #FDCB6F",
"A. c #FCCF76",
"S. c #7B7D8B",
"D. c #84588B",
"F. c #8A6085",
"G. c #956C83",
"H. c #996886",
"J. c #9B7284",
"K. c #9F7B8B",
"L. c #8D6995",
"P. c #A57A85",
"I. c #AB7B86",
"U. c #A3738C",
"Y. c #A47A8B",
"T. c #AA7D8B",
"R. c #A37481",
"E. c #B57B82",
"W. c #A47897",
"Q. c #7E808E",
"!. c #9D828F",
"~. c #AD818C",
"^. c #A5808F",
"/. c #B1838A",
"(. c #B8858D",
"). c #AD8D9A",
"_. c #AA8390",
"`. c #B48B9C",
"'. c #B48F97",
"]. c #B3929E",
"[. c #BA9BA7",
"{. c #C3988A",
"}. c #C48F98",
"|. c #C19DA5",
" X c #CFA3AF",
".X c #C1AAB2",
"XX c #CBADB4",
"oX c #C5A4B5",
"OX c #C8B2B9",
"+X c #DABEB9",
"@X c #FFEF81",
"#X c #DEBEC7",
"$X c #F4D1CD",
"%X c #E5D7D6",
"&X c #F8D5DB",
"*X c #F0D9E5",
"=X c None",
/* pixels */
"=X=XG.i.=X=X=X=X=X=X=X=X=X=X=X=X=X=X=X=X=X=X=X=X=X=X=X=Xi.G.=X=X",
"=Xj.#.#.0.=X=X=X=X=X=X=X=X=X=X=X=X=X=X=X=X=X=X=X=X=X=X0.#.#.j.=X",
"=Xm.N.] 6.a.=X=X=X=X=X=X=X=X=X=X=X=X=X=X=X=X=X=X=X=Xa.5.] N.m.=X",
"] l.@Xk.-.s.0.=X=X=X=X=X=X=X=X=X=X=X=X=X=X=X=X=X=X0.a.-.k.@Xl.;.",
"] c.B.A.s.5.R.y.=X=X=X=X=X=X=X=X=X=X=X=X=X=X=X=Xy.g.9.s.A.B.c.( ",
"z.C.x.Z.{.H.f.y.=X=X=X=X=X=X=X=X=X=X=X=X=X=X=X=Xy.R.H.{.Z.x.C.z.",
"O.M.n.d.L._.T.2.[ ).=X=X=X=X=X=X=X=X=X=X=X=X).[ ,.I._.L.d.n.M.+.",
"=XN.v.%.:.P.].U.~ K..X=XJ v =X=X=X=Xb B =X.XY.~ U.`.Y.:.%.v.N.=X",
"=Xn.b.=.D.Y.J.].t.^.[./ ~ K C C C n K ~ / [.Y.t.`.G.Y.F.=.b.C.=X",
"=XO.V.$.n 5 3.OX.Xt.t t Q Z n M v C Z ! t t t..XOX3.4 n $.V.+.=X",
"=Xm +.~ 9 G ).J.e.[ B C v 1 J w w K 1 r C B [ e.J.].H 9 ~ +.m =X",
"=XI 6 i -.Y.J.[ } <.` / Q V ! w w Q V Q / [ } <.[ G.Y.@.m 6 I =X",
"=XI j i 7.7.<.1.1.} G.< < A A M M A A < < G.} 1.3.3.7.7.G j G =X",
"=X^ ^ b K ;.7.e.e.w.[.S $ C N Z Z N n $ S [.w.w.t.w.;.K b ^ W =X",
"=XE b B n [ 2.t.8.G.#X^.8 r Q L L Y v 8 T.#XG.8.e.2.[ n B b U =X",
"=X=X, J K E G F - % f w.-.4 9.:.<.7.4 -.w.f % - F G E K J , =X=X",
"=X=Xe t e * > s x &     I.;.B '.'.Z ` T.    & x s > $ t N e =X=X",
"=X=X=Xq # ) D.o.h.  c + a `.V R.R.V `.a + c   h.o.D.) $ q =X=X=X",
"=X=X=Xq , ;.U.` x X @ z O U.>.,.5.:.U.O k @ X x ` U.:., < =X=X=X",
"=X=X=X- , 0 D  .! &.*._ * R >.~.I.2.T * _ ' &.! | R r < - =X=X=X",
"=X=X=X$ * w = B { W.*XoXq d I /./.P y q oX*XW.:.B = w * $ =X=X=X",
"=X=X=XV J N N Z , e 8.!.Q 8 T E.E.T 0 Q K.7.w r Z N N L d =X=X=X",
"=X=X=X=XL B e Y A C B y B , ; ` #.- : B b G C A Y e d E =X=X=X=X",
"=X=X=X=Xe e d G L H t H ^ : o 7 7 o : ^ H t H L G d e d =X=X=X=X",
"=X=X=X=X=XL y y E W e d (.p.. X.X.. p.(.t e W E y i L =X=X=X=X=X",
"=X=X=X=X=X=XE >.,.2.r.,.6.$XQ.2 3 S.$X,.5.r.2.2.2.T =X=X=X=X=X=X",
"=X=X=X=X=X=X=XP.r.2.>.#.f.+X&Xg p &X+Xi.#.>.2.r.P.=X=X=X=X=X=X=X",
"=X=X=X=X=X=X=X=XW y.r.r.(.~.}.< 1 }./.(.r.q.y.W =X=X=X=X=X=X=X=X",
"=X=X=X=X=X=X=X=X=X>.f.R.f.T.1.u u 3.T.g.g.y.>.=X=X=X=X=X=X=X=X=X",
"=X=X=X=X=X=X=X=X=X=X4.5.T.y.Y. X XY.y.T.q.,.=X=X=X=X=X=X=X=X=X=X",
"=X=X=X=X=X=X=X=X=X=X=X=Xf.|.XX%X%XXX|.f.=X=X=X=X=X=X=X=X=X=X=X=X",
"=X=X=X=X=X=X=X=X=X=X=X=X=X=X=XXXXX=X=X=X=X=X=X=X=X=X=X=X=X=X=X=X"
};
