/* XPM */
static char *_537374571999[] = {
/* columns rows colors chars-per-pixel */
"64 64 249 2 ",
"   c #010001",
".  c #0A0406",
"X  c #140008",
"o  c #16190A",
"O  c #1A0517",
"+  c #0D1009",
"@  c #3C1705",
"#  c #230D1C",
"$  c #21021C",
"%  c #381417",
"&  c #1E2110",
"*  c #2D2714",
"=  c #352E15",
"-  c #1F1028",
";  c #2A0825",
":  c #370B2C",
">  c #2B1122",
",  c #291125",
"<  c #35142C",
"1  c #39152C",
"2  c #38182D",
"3  c #370D34",
"4  c #3A1433",
"5  c #3D1933",
"6  c #381233",
"7  c #2E0031",
"8  c #4A1D17",
"9  c #531D0E",
"0  c #4A370C",
"q  c #742E11",
"w  c #48082D",
"e  c #490C33",
"r  c #431A35",
"t  c #451B3B",
"y  c #4D1D3C",
"u  c #471538",
"i  c #531D3E",
"p  c #5B1B3D",
"a  c #581439",
"s  c #520838",
"d  c #691C37",
"f  c #661C38",
"g  c #660D3F",
"h  c #4A223C",
"j  c #58223D",
"k  c #57292A",
"l  c #6C233D",
"z  c #62253D",
"x  c #3F4006",
"c  c #534510",
"v  c #674D18",
"b  c #504923",
"n  c #645423",
"m  c #755E29",
"M  c #72652B",
"N  c #6F6413",
"B  c #4E1D41",
"V  c #4C1B48",
"C  c #531E43",
"Z  c #5B1E43",
"A  c #5A1A45",
"S  c #591C51",
"D  c #661B43",
"F  c #6E1945",
"G  c #4D2441",
"H  c #542143",
"J  c #5C2345",
"K  c #5C2B46",
"L  c #5B2449",
"P  c #5D2A49",
"I  c #542947",
"U  c #5B344C",
"Y  c #53354D",
"T  c #632545",
"R  c #6C2445",
"E  c #642A45",
"W  c #622449",
"Q  c #632B4A",
"!  c #6B2C4B",
"~  c #6C2A47",
"^  c #732E4B",
"/  c #792946",
"(  c #64314D",
")  c #6C324C",
"_  c #683748",
"`  c #73334C",
"'  c #79364D",
"]  c #692A57",
"[  c #653452",
"{  c #6B3451",
"}  c #6D3A54",
"|  c #673855",
" . c #743452",
".. c #733A53",
"X. c #7A3E53",
"o. c #743C59",
"O. c #793957",
"+. c #732F50",
"@. c #6F3D65",
"#. c #434246",
"$. c #594349",
"%. c #694458",
"&. c #76425A",
"*. c #7A455C",
"=. c #7C495E",
"-. c #7E4354",
";. c #7A4D54",
":. c #7C4B63",
">. c #764663",
",. c #7B546A",
"<. c #7F5A70",
"1. c #756F71",
"2. c #8A3E20",
"3. c #92651B",
"4. c #994425",
"5. c #A84A2A",
"6. c #85762A",
"7. c #A7711F",
"8. c #832D46",
"9. c #863647",
"0. c #843D58",
"q. c #844A5A",
"w. c #844559",
"e. c #8B525C",
"r. c #95545E",
"t. c #91484E",
"y. c #B97B56",
"u. c #B26C4F",
"i. c #824C64",
"p. c #884966",
"a. c #865165",
"s. c #8C5464",
"d. c #83546B",
"f. c #89556A",
"g. c #8D5B6C",
"h. c #89596A",
"j. c #965B66",
"k. c #925C6D",
"l. c #955968",
"z. c #865D72",
"x. c #8A5D73",
"c. c #8B5A78",
"v. c #925E75",
"b. c #9D636B",
"n. c #9B636A",
"m. c #8C6276",
"M. c #8D6379",
"N. c #866273",
"B. c #946474",
"V. c #996674",
"C. c #9B6B76",
"Z. c #936479",
"A. c #946B7D",
"S. c #9B6C7B",
"D. c #9B647A",
"F. c #9C717C",
"G. c #8B796E",
"H. c #A1696D",
"J. c #A0676B",
"K. c #A36B74",
"L. c #A16F7B",
"P. c #A26474",
"I. c #A3727D",
"U. c #A25A4C",
"Y. c #CA7B50",
"T. c #B18927",
"R. c #B3A13B",
"E. c #EF9D36",
"W. c #EFB73E",
"Q. c #DFA93E",
"!. c #BF8661",
"~. c #D7874D",
"^. c #D89652",
"/. c #CC8B51",
"(. c #E4844B",
"). c #F2974C",
"_. c #E69B57",
"`. c #F08945",
"'. c #DEA55F",
"]. c #EBA455",
"[. c #E9A55C",
"{. c #E8A658",
"}. c #F4AE5A",
"|. c #F7B858",
" X c #FBB14F",
".X c #C89470",
"XX c #EDB76B",
"oX c #EAB778",
"OX c #F1B468",
"+X c #D3A275",
"@X c #FEC45A",
"#X c #F9C558",
"$X c #FFD85D",
"%X c #FFE55A",
"&X c #FFC765",
"*X c #F9C875",
"=X c #FFD16F",
"-X c #966A82",
";X c #9C7484",
":X c #9D7A8A",
">X c #9A7586",
",X c #946D90",
"<X c #A47584",
"1X c #A47A84",
"2X c #AA7B85",
"3X c #A47B8B",
"4X c #A97C8B",
"5X c #A3768A",
"6X c #B37E86",
"7X c #A4758A",
"8X c #A6828D",
"9X c #AD838D",
"0X c #A7898F",
"qX c #B4878C",
"wX c #A68493",
"eX c #AA8391",
"rX c #AA8997",
"tX c #AD8C99",
"yX c #B48B94",
"uX c #B58A96",
"iX c #B7939B",
"pX c #B395A1",
"aX c #B999A5",
"sX c #BDA4AA",
"dX c #BFA7B0",
"fX c #9D828B",
"gX c #CB9C9E",
"hX c #C69EA7",
"jX c #C4A3AC",
"kX c #CCABAC",
"lX c #C9A4A7",
"zX c #CAADB2",
"xX c #C6A9B3",
"cX c #CCB4B9",
"vX c #D7B8BA",
"bX c #D2ADAB",
"nX c #FFDC86",
"mX c #F2CA86",
"MX c #DBC3BE",
"NX c #D4BDC1",
"BX c #CCBAC0",
"VX c #E0BECB",
"CX c #D9C3C7",
"ZX c #DEC5D1",
"AX c #E3C7CC",
"SX c #E9D4CF",
"DX c #EFDBE2",
"FX c #FFEDE4",
"GX c None",
/* pixels */
"GXGXGXGXGXC.C.GXGXGXGXGXGXGXGXGXGXGXGXGXGXGXGXGXGXGXGXGXGXGXGXGXGXGXGXGXGXGXGXGXGXGXGXGXGXGXGXGXGXGXGXGXGXGXGXGXGXC.F.GXGXGXGXGX",
"GXGXGXGXI.F.F.F.GXGXGXGXGXGXGXGXGXGXGXGXGXGXGXGXGXGXGXGXGXGXGXGXGXGXGXGXGXGXGXGXGXGXGXGXGXGXGXGXGXGXGXGXGXGXGXGXF.F.F.I.-XGXGXGX",
"GXGXu.j.O.e.r.j.r.n.GXGXGXGXGXGXGXGXGXGXGXGXGXGXGXGXGXGXGXGXGXGXGXGXGXGXGXGXGXGXGXGXGXGXGXGXGXGXGXGXGXGXGXGXj.r.j.j.e.O.s.u.GXGX",
"GXGX/.#X9.^ r.r.e.b.J.GXGXGXGXGXGXGXGXGXGXGXGXGXGXGXGXGXGXGXGXGXGXGXGXGXGXGXGXGXGXGXGXGXGXGXGXGXGXGXGXGXGXC.b.r.t.r./ ' #X^.GXGX",
"GXGX/.$X|.j.p.j.j.b.J.J.GXGXGXGXGXGXGXGXGXGXGXGXGXGXGXGXGXGXGXGXGXGXGXGXGXGXGXGXGXGXGXGXGXGXGXGXGXGXGXGXb.J.V.j.n.p.l.#X%X/.A GX",
"GXW /.|.*XmXs.f.j.b.H.b.b.GXGXGXGXGXGXGXGXGXGXGXGXGXGXGXGXGXGXGXGXGXGXGXGXGXGXGXGXGXGXGXGXGXGXGXGXGXGXb.b.J.b.j.s.p.mX=X|./.D GX",
"GX] /.@XoXnX+Xw.j.J.H.b.b.GXGXGXGXGXGXGXGXGXGXGXGXGXGXGXGXGXGXGXGXGXGXGXGXGXGXGXGXGXGXGXGXGXGXGXGXGXGXb.b.H.b.j.O.+XnXoX@X/.] GX",
"GXO.^. XOXoXnXH.i.K.H.n.b.K.GXGXGXGXGXGXGXGXGXGXGXGXGXGXGXGXGXGXGXGXGXGXGXGXGXGXGXGXGXGXGXGXGXGXGXGXK.b.b.H.K.w.K.nXoXOX|.^.O.GX",
"GXo.^.|.[.XXXXmXp.l.J.b.I.2XD.GXGXGXGXGXGXGXGXGXGXGXGXGXGXGXGXGXGXGXGXGXGXGXGXGXGXGXGXGXGXGXGXGXGXD.2XI.J.J.P.@.mXXXXX}.|.^.o.GX",
"GX'  X}.}.XXXX=X.Xp.K.I.I.I.C.D.GXGXGXGXGXGXGXGXGXGXGXGXGXGXGXGXGXGXGXGXGXGXGXGXGXGXGXGXGXGXGXGXC.D.K.<XI.P.p..X=XXXOX].}. X' GX",
"] /.@X].].[.XX&X*X-X;XI.I.I.C.V.C.GXGXGXGXGXGXGXGXGXGXGXGXGXGXGXGXGXGXGXGXGXGXGXGXGXGXGXGXGXGXD.V.S.I.I.L.L.-X*X&XoX[.].{.#X^.] ",
"y.%X|._._._.}.mX6X7X7X<XI.L.S.S.S.GXGXGXGXGXGXGXGXGXGXGXGXGXGXGXGXGXGXGXGXGXGXGXGXGXGXGXGXGXGXS.S.S.I.L.<X2X3XuXmX}._._.[.}.$X/.",
"t.u._.OX[.}.).,X,X4X3X4X4X4XD.g.g.g.GXGXGXGXGXGXGXGXGXGXGXGXGXGXGXGXGXGXGXGXGXGXGXGXGXGXGXGXg.g.k.V.2X4X4X4X4X,X;X].}.[.OX'.u.t.",
"GXs y.|.[.}.(.p.-X3XeX7X<X4X<X&.*.*.wXiXGXGXGXGXGXGXGXGXGXGXGXGXGXGXGXGXGXGXGXGXGXGXGXGXpXrX*.*.o.<X4X;X7X4X4XD.p.Y.}._.|./.s GX",
"GX/ '.=X[.`.Y.k.f.k.;X4X4X<XeXD.&.=.8XpXrXrXGXGXGXGXGXGXGXGXGXGXGXGXGXGXGXGXGXGXGXGXrXrXiX:X:.&.D.eX5X3X4X<Xv.l.c.Y.`.[.=X'./ GX",
"GX9.OX|. XY.`.v.v.p.w.A.rX3X4XeXi...:XpXrXrXxX8X) Q V L L L GXGXGXGXL L L C Q ) 3XdXtXrXpX:X..i.eX3X3XrX-Xw.p.l.P.Y.`.].&X|.9.GX",
"GXU.$X].].).(.v.Z.5XrXaXtXtXtXeX5X..A.pXtXdX>XJ ! ..J V L L L L L L L L C L ..) j A.xXtXpX-X..:XeXtXtXtXaXtX5XA.v.Y.).].].$XU.GX",
"GXGX^.@X_.).(.g.-X3X3X-X;X5XA.tXpXf.:.dXsXd.p ! } ..{ H J L L H G L H L V ) ..} ) p d.sXxXi.d.pXtXA.;X;X-X7X5X-Xc.`.)._.@X_.GXGX",
"GXGXD ].|. XY.S  ./ f w ..i.3XBXxXpX>XiX=.j } ..} } &.P H L L B B L L H Q O...} ....j &.pX;XpXxXBX3Xi...w f ^  .S Y.).@X].F GXGX",
"GXGXg F |.|.t.] ! Z i w >.jXBXaXpXsXrXJ e P P L L L H L L L L t t L L L L H L L L P P e H 8XsXiXaXcXxXi.w y p ^ ] 0.@X|.F D GXGX",
"GXGX8.g 9._.] Z i Z p a :XaX>Xz.h.N.,.o.Q C u C C H 4 t C L L t t L L L 5 4 L C C u C ( &.,.z.z.z.:XpX:XZ p J i D ] ].9.g 8.GXGX",
"GXGX8.8./ D Q R +.R R Z.>X:Xm.:.A.M.:.d.:.&.[ C B C < 6 L L L t 5 L C L 6 < B V C [ &.>.d.:.m.A.:.c.>X;XD.R R ` R W l l 8./ GXGX",
"GXGX8.8.l a ~  .F R M.-XZ.wXd.:.-Xz.:.d.:.} *.:.} B G { U } u 5 r u | [ { G y ..:.=.} :.d.:.h.A.:.d.wXA.-XZ.R F  .~ a d 8.8.GXGX",
"GXGX8.d d d d R ~ A.>Xv.;X-X&.d.N.=.:.:.d.o.o.o.I I k.K 3 Z.I < 6 I M.3 K l.I I %.o...d.:.:.:.c.,.&.A.;XM.>XA.R R d d f d 8.GXGX",
"GXGXl f l l d l x.-Xx.m.Z.d.:.d.d.,.d.d.d.z.G 6 6 I *.5 3 | %.: : %.%.3 6 &.P 6 6 t <.d.d.d.,.,.d.:.d.Z.x.x.A.Z.l d l l d l GXGX",
"GXGX` ` ^ ' ` W *.i.*.*.>.z.x.x.N.N.N.z.,.aXY X 6 G I 5 B y [ r r [ B B 5 I h 6 X Y aX<.z.M.z.z.N.x.c.=.=.*.i.>.D ' ' ^ ` ^ GXGX",
"GXGX^ ^ ^ ` J C J a.i.*.d.M.z.z.z.z.z.,.A.dX<.X , r V L C L ..h y ..J C H H r , X ,.xXA.,.z.z.M.c.g.m.d.*.i.d.L C L ` ` ` ^ GXGX",
"GXGX^ ` ` W A W a { h.:.c.z.z.z.M.c.d.z.rXpX:XO 1 ! H H C P [ Q Q [ P B H C ! 5 O >XpXrXz.,.c.M.N.z.z.x.:.f.} a W Z W ^ ` ^ GXGX",
"GXGXGX' W W D J Z A o.M.A.M.-Xc.M.M.M.wXrX:XiXU s ! C B C Q ) } { { Q C C L W a P pX:XrXwXM.M.M.M.M.M.M.M.&.a Z Z W W W ' GXGXGX",
"GXGXGXH i C W Q ! J ! h.d.:.d.<.M.c.c.pXxXxXjXk.a A Z u | *.K { } J *.} t C A a k.sXjXxXpXc.-XM.<.d.a.d.h.) L ! Q W i B C GXGXGX",
"GXGXGX4 < 5 L L Q { ! E E i [ -X>.2 O , U >XrXg.:.p B y O.3X*.J J &.3X&.u B A =.g.qX>X$., O 6 >.-X] a E R ) [ Q W J 5 < 5 GXGXGX",
"GXGXGXGX5 y J J Z y !  .! D p.Y             # 0.C.o.e T Q S.3X:.:.1XS.! W e O.C.O.>             Y d.D Q  .! C Z J J y 5 GXGXGXGX",
"GXGXGXGXr L J j H C K H G B O . 0 m M *     . 2 p.F.:.a T g.A.1X1XA.x.R a =.1Xp.2   .   * M M v   O y h H J H C H J J 5 GXGXGXGX",
"GXGXGXGXGXy r 2 H y > ; ; I - 3.E.6.b +       + u gXsXy e f.:X<X<X3Xx.e u aXgXa   + .   . b M E.3.- Z ; > , y G 5 r i GXGXGXGXGX",
"GXGXGXGXGX5 5 5 L O X t &.3X@.7.).=     1.1.& o . l.bXM.$ *.iXI.F.iX=.O g.bXk.. o & 1.1.    = Q.T.@.4X>.i X O W r 2 2 GXGXGXGXGX",
"GXGXGXGXGXr 5 j <   %.uXwX7X3 n #Xb   + #.#.& n + : <XiX=.j h.9X9Xg.j *.iX<X1 . M = #.#.    b  X7.3 5X9XpX%.  > j 5 r GXGXGXGXGX",
"GXGXGXGXGXr r r > u >.A.:Xf.V 0 W.M o       & b . O V.iXq.p q.S.F.q.a q.aXP.$ + n o       + M W.0 V d.:X-X>.4 > r r r GXGXGXGXGX",
"GXGXGXGXGXGXr 2 I G y W U N.5X6 v T.n * + b R.T.  O uXS.z f.B.B.B.B.h.z C.uXO   6.R.n + * n T.v 3 7XM.Q T i G L < r GXGXGXGXGXGX",
"GXGXGXGXGXGX5 # 4 B K ..6 -XpX] 7 @ = c c N v _ $   L.g.a.S.S.2X2XS.S.a.f.<X. O _ v N c c = 8 7 ] iX>X6 ) Q B 5 # 5 GXGXGXGXGXGX",
"GXGXGXGXGXGX1 > # < ) J 6 [ | } M.,X1.;.G.;.S S  .. j p.! q.qXI.I.qXq.~ p.j . { S G $.1.1.;.,XM.| | [ 6 I ) 4 # > 2 GXGXGXGXGXGX",
"GXGXGXGXGXGX1 > # # h t r ; u | :.>XhXNXDXZXAXwXy 6 U 0.e ` qXI.1XqX` u 0.( < y 8XAXAXDXAXhX:X>.} u ; r t B # # > 1 GXGXGXGXGXGX",
"GXGXGXGXGXGX> O < r r t t t [ } P j J z.cXcXvXiXO y p.' : ;.K.2X2XK.q.: ` i.y O tXvXcXzXN.J A E | [ y t t r r < # > GXGXGXGXGXGX",
"GXGXGXGXGXGXGXH H B t t y y Q Q Q P 3 C >.>XzXvXh J w.j : e.b.I.<XJ.e.: j w.K h cXzX>X:.H 6 L P Q Q H t t t y G j GXGXGXGXGXGXGX",
"GXGXGXGXGXGXGX .Q E W H H G L H t 4 I c.>.[ %.:X| p ! r r J.P.C.C.J.H.r r Q p [ :X@.[ >.c.I 6 y H P h H J L W ! ` GXGXGXGXGXGXGX",
"GXGXGXGXGXGXGX!  .! ! ! J j Q P Q E P Q L L Z : r B u 1 > _ r.-.w.r._ < 1 u y u : p L L Q Q E ( P Q j J ~ ! ^ ` ! GXGXGXGXGXGXGX",
"GXGXGXGXGXGXGXj J j y y y r ) -...H B Z L ! ) ) ) ( y 2 > X j t.t.z . > 1 y ! _ ) ) Q W A B H ) -.[ u t t y h W j GXGXGXGXGXGXGX",
"GXGXGXGXGXGXGXGXy y y y y r E ( y p K P ) )  .` ` ' i B # . $ K z ; . O y j ' ` ` ) ` ) L K Z i ) E r y y i y y GXGXGXGXGXGXGXGX",
"GXGXGXGXGXGXGXGXGXH y j H H T H D  .w.H u H y ! ` ~ u O 8 9 8 8 8 % 9 8 O r ~ ` _ B H t H w.' Z Z T J H H y C GXGXGXGXGXGXGXGXGX",
"GXGXGXGXGXGXGXGXGXGXT T W R D J ' -...-.j 4 j ! z I.qX. @ q q 4.4.q q @ . qX6Xz ~ H 6 j -.X.-.' T J R T E T GXGXGXGXGXGXGXGXGXGX",
"GXGXGXGXGXGXGXGXGXGXR T ~ T E ' ' ~ E ~ ` i ) ~ L.bXgXe.    @ 4.4.8     q.gXbXI.` ! C ) ~ E E ` ' E T T W R GXGXGXGXGXGXGXGXGXGX",
"GXGXGXGXGXGXGXGXGXGXGXE p p ) ` ` ;.h.B.S.V...B.9X;.I.FXfX. X 5.5.X   fXFXI.;.9XV.' B.F.n.h.=.' ` ) p p E GXGXGXGXGXGXGXGXGXGXGX",
"GXGXGXGXGXGXGXGXGXGXGXGX` h.g.C.8X1XC.h.g.V.Z.C.-.q.gXSXDX,Xk 2.4.k ,XSXSXgXq.-.C.C.B.g.x.C.:X2XS.k.s.` GXGXGXGXGXGXGXGXGXGXGXGX",
"GXGXGXGXGXGXGXGXGXGXGXGXGXqX1XF.s.-.&.a.k.v.k.q.-.yXiXMXSXvXY @ 9 Y vXAXMXgXqXq.=.g.n.g.a.-.&.f.F.1XqXGXGXGXGXGXGXGXGXGXGXGXGXGX",
"GXGXGXGXGXGXGXGXGXGXGXGXGXGXg.a.f.C.S.B.s.e.e.X.I.bXyXbXbXvX>.O . >.vXkXbXiXkXI.X.e.e.h.B.C.C.a.f.g.GXGXGXGXGXGXGXGXGXGXGXGXGXGX",
"GXGXGXGXGXGXGXGXGXGXGXGXGXGXGXq.s.q.f.S.e.q.-.V.lXqXI.9XI.qXK.C i P.qXI.4XI.qXlXC.X.q.q.V.s.q.s.q.GXGXGXGXGXGXGXGXGXGXGXGXGXGXGX",
"GXGXGXGXGXGXGXGXGXGXGXGXGXGXGXGX' l k.3XqXI.s.qX9Xn.I.iXlXgX-.. . } lXlXiXL.n.2XqXk.F.yX9Xk.l ' GXGXGXGXGXGXGXGXGXGXGXGXGXGXGXGX",
"GXGXGXGXGXGXGXGXGXGXGXGXGXGXGXGXGX-.C.q.k.9XF.C.K.L.qXyXB.Z : G h : i k.yXyXI.K.C.S.9XB.q.C.w.GXGXGXGXGXGXGXGXGXGXGXGXGXGXGXGXGX",
"GXGXGXGXGXGXGXGXGXGXGXGXGXGXGXGXGXGXGXq.s.S.k.V.I.4XuXZ.:.v.0./ 8.0.Z.p.v.uX2XI.V.k.S.s.q.GXGXGXGXGXGXGXGXGXGXGXGXGXGXGXGXGXGXGX",
"GXGXGXGXGXGXGXGXGXGXGXGXGXGXGXGXGXGXGXGXs.C.B.k.L.4X<XD.<XhXuXg.f.eXhX7XS.5X1XI.k.B.V.l.GXGXGXGXGXGXGXGXGXGXGXGXGXGXGXGXGXGXGXGX",
"GXGXGXGXGXGXGXGXGXGXGXGXGXGXGXGXGXGXGXGXGXGXV.k.F.uX7XZ.-XuXjXSXSXjXuX-XZ.7XuXL.k.V.B.GXGXGXGXGXGXGXGXGXGXGXGXGXGXGXGXGXGXGXGXGX",
"GXGXGXGXGXGXGXGXGXGXGXGXGXGXGXGXGXGXGXGXGXGXGXGXk.iXhX9XaXNXZXNXvXZXCXaX4XhXiXj.GXGXGXGXGXGXGXGXGXGXGXGXGXGXGXGXGXGXGXGXGXGXGXGX",
"GXGXGXGXGXGXGXGXGXGXGXGXGXGXGXGXGXGXGXGXGXGXGXGXGXGXkXzXCXNXcXNXNXcXNXCXzXzXGXGXGXGXGXGXGXGXGXGXGXGXGXGXGXGXGXGXGXGXGXGXGXGXGXGX",
"GXGXGXGXGXGXGXGXGXGXGXGXGXGXGXGXGXGXGXGXGXGXGXGXGXGXGXGXGXkXsXvXNXjXkXGXGXGXGXGXGXGXGXGXGXGXGXGXGXGXGXGXGXGXGXGXGXGXGXGXGXGXGXGX",
"GXGXGXGXGXGXGXGXGXGXGXGXGXGXGXGXGXGXGXGXGXGXGXGXGXGXGXGXGXGXGXkXzXGXGXGXGXGXGXGXGXGXGXGXGXGXGXGXGXGXGXGXGXGXGXGXGXGXGXGXGXGXGXGX"
};
