/* XPM */
static char *_537375106204[] = {
/* columns rows colors chars-per-pixel */
"16 16 154 2 ",
"   c black",
".  c #2C2600",
"X  c #342B00",
"o  c #2D0D24",
"O  c #3F1433",
"+  c #3F1F3A",
"@  c #481B1C",
"#  c #4A1C1C",
"$  c #411634",
"%  c #401734",
"&  c #441B31",
"*  c #441832",
"=  c #451933",
"-  c #471D33",
";  c #46153D",
":  c #46153E",
">  c #4E1B3C",
",  c #54163B",
"<  c #54173B",
"1  c #531B3B",
"2  c #541B3C",
"3  c #511E3F",
"4  c #5F183F",
"5  c #42203C",
"6  c #59363D",
"7  c #5A353F",
"8  c #633A29",
"9  c #673F2F",
"0  c #72263E",
"q  c #74263E",
"w  c #47482B",
"e  c #46492D",
"r  c #571E40",
"t  c #561F43",
"y  c #531E44",
"u  c #4C2240",
"i  c #4D2340",
"p  c #4F2047",
"a  c #532241",
"s  c #532342",
"d  c #532444",
"f  c #542545",
"g  c #582041",
"h  c #5A2344",
"j  c #5C2345",
"k  c #5D2345",
"l  c #512149",
"z  c #63244A",
"x  c #662649",
"c  c #662749",
"v  c #64254B",
"b  c #64274C",
"n  c #7C2340",
"m  c #6E3251",
"M  c #6E3453",
"N  c #693A56",
"B  c #693B56",
"V  c #6F345A",
"C  c #6D345C",
"Z  c #703B57",
"A  c #753A54",
"S  c #773C55",
"D  c #783B54",
"F  c #7A3D56",
"G  c #723D59",
"H  c #7D4E45",
"J  c #7F4E47",
"K  c #755F44",
"L  c #765E45",
"P  c #604B56",
"I  c #614C57",
"U  c #704952",
"Y  c #754C56",
"T  c #724659",
"R  c #784C5E",
"E  c #7C4B63",
"W  c #7E4D65",
"Q  c #794A6C",
"!  c #795A65",
"~  c #785966",
"^  c #7F4F70",
"/  c #A85547",
"(  c #AF5C48",
")  c #A7644D",
"_  c #B27456",
"`  c #824C60",
"'  c #834D61",
"]  c #814E66",
"[  c #8B5766",
"{  c #835168",
"}  c #8D5668",
"|  c #905466",
" . c #915467",
".. c #925B6C",
"X. c #935F6D",
"o. c #8A5F73",
"O. c #925D74",
"+. c #925E74",
"@. c #96636D",
"#. c #94616E",
"$. c #886276",
"%. c #8D6376",
"&. c #8C657A",
"*. c #986571",
"=. c #996571",
"-. c #9A6971",
";. c #9D6B76",
":. c #90657A",
">. c #91667B",
",. c #9E6D78",
"<. c #98697F",
"1. c #B17F7E",
"2. c #C77E4D",
"3. c #B4837E",
"4. c #CE844D",
"5. c #C38359",
"6. c #C88859",
"7. c #D68A56",
"8. c #D98C56",
"9. c #F8B05E",
"0. c #D29564",
"q. c #D59964",
"w. c #F5AE60",
"e. c #FFCD67",
"r. c #FFCC69",
"t. c #996B82",
"y. c #9F6C82",
"u. c #9B6E84",
"i. c #967082",
"p. c #9B7182",
"a. c #9D7782",
"s. c #987284",
"d. c #9D7585",
"f. c #9D7882",
"g. c #A06C82",
"h. c #A56D81",
"j. c #A76F83",
"k. c #A77885",
"l. c #A77886",
"z. c #A4728E",
"x. c #A77590",
"c. c #A27D90",
"v. c #A48191",
"b. c #A88091",
"n. c #A98193",
"m. c #AE8293",
"M. c #AC8295",
"N. c #A98794",
"B. c #AB8997",
"V. c #D0A5A9",
"C. c #D1A7AB",
"Z. c #E1CACD",
"A. c #E3CDCF",
"S. c None",
/* pixels */
"S.-.S.S.S.S.S.S.S.S.S.S.S.S.@.S.",
"_ 0.| S.S.S.S.S.S.S.S.S.S.| q.) ",
"6.r.1.+.S.S.S.S.S.S.S.S.+.3.r.5.",
"4.w.M.<.d.S.S.S.S.S.S.p.t.m.9.2.",
"( 7.C v.N.E j y y j W B.c.V 8./ ",
"n 0 M s.o.t f u u f r %.i.m q S.",
"S.4 { :.x.$.$ a a $ &.z.:.] 4 S.",
"S.t c B P ! z G Z b ! P B c t S.",
"S.% l H X   Y g.g.U   X J p $ S.",
"S.o 5 [ K w f h.h.6 e L [ + S.S.",
"S.S.* : ^ N.> X.} 3 n.Q : * S.S.",
"S.S.h 1 1 v & # # - c , 1 h S.S.",
"S.S.S.S ' F a.8 9 a.A ' A S.S.S.",
"S.S.S.S.X.=.V.T R V.=.@.S.S.S.S.",
"S.S.S.S.S.,.l.u.u.l.;.S.S.S.S.S.",
"S.S.S.S.S.S.S.A.Z.S.S.S.S.S.S.S."
};
